HIERARCHY
ROOT Hips
{
	OFFSET -0.001795 -0.223333 0.028219
	CHANNELS 6 Xposition Yposition Zposition Zrotation Yrotation Xrotation 
	JOINT LeftUpLeg
	{
		OFFSET 0.069520 -0.091406 -0.006815
		CHANNELS 3 Zrotation Yrotation Xrotation
		JOINT LeftLeg
		{
			OFFSET 0.034277 -0.375199 -0.004496
			CHANNELS 3 Zrotation Yrotation Xrotation
			JOINT LeftFoot
			{
				OFFSET -0.013596 -0.397961 -0.043693
				CHANNELS 3 Zrotation Yrotation Xrotation
				JOINT LeftToe
				{
					OFFSET 0.026358 -0.055791 0.119288
					CHANNELS 3 Zrotation Yrotation Xrotation
					End Site
					{
						OFFSET 0.000000 0.000000 0.000000
					}
				}
			}
		}
	}
	JOINT RightUpLeg
	{
		OFFSET -0.067670 -0.090522 -0.004320
		CHANNELS 3 Zrotation Yrotation Xrotation
		JOINT RightLeg
		{
			OFFSET -0.038290 -0.382569 -0.008850
			CHANNELS 3 Zrotation Yrotation Xrotation
			JOINT RightFoot
			{
				OFFSET 0.015774 -0.398415 -0.042312
				CHANNELS 3 Zrotation Yrotation Xrotation
				JOINT RightToe
				{
					OFFSET -0.025372 -0.048144 0.123348
					CHANNELS 3 Zrotation Yrotation Xrotation
					End Site
					{
						OFFSET 0.000000 0.000000 0.000000
					}
				}
			}
		}
	}
	JOINT Spine
	{
		OFFSET -0.002533 0.108963 -0.026696
		CHANNELS 3 Zrotation Yrotation Xrotation
		JOINT Spine1
		{
			OFFSET 0.005487 0.135180 0.001092
			CHANNELS 3 Zrotation Yrotation Xrotation
			JOINT Spine2
			{
				OFFSET 0.001457 0.052922 0.025425
				CHANNELS 3 Zrotation Yrotation Xrotation
				JOINT Neck
				{
					OFFSET -0.002778 0.213870 -0.042857
					CHANNELS 3 Zrotation Yrotation Xrotation
					JOINT Head
					{
						OFFSET 0.005152 0.064970 0.051349
						CHANNELS 3 Zrotation Yrotation Xrotation
						End Site
						{
							OFFSET 0.000000 0.000000 0.000000
						}
					}
				}
				JOINT LeftShoulder
				{
					OFFSET 0.078845 0.121749 -0.034090
					CHANNELS 3 Zrotation Yrotation Xrotation
					JOINT LeftArm
					{
						OFFSET 0.090977 0.030469 -0.008868
						CHANNELS 3 Zrotation Yrotation Xrotation
						JOINT LeftForeArm
						{
							OFFSET 0.259612 -0.012772 -0.027456
							CHANNELS 3 Zrotation Yrotation Xrotation
							JOINT LeftHand
							{
								OFFSET 0.249234 0.008986 -0.001171
								CHANNELS 3 Zrotation Yrotation Xrotation
								End Site
								{
									OFFSET 0.000000 0.000000 0.000000
								}
							}
						}
					}
				}
				JOINT RightShoulder
				{
					OFFSET -0.081759 0.118833 -0.038615
					CHANNELS 3 Zrotation Yrotation Xrotation
					JOINT RightArm
					{
						OFFSET -0.096012 0.032551 -0.009143
						CHANNELS 3 Zrotation Yrotation Xrotation
						JOINT RightForeArm
						{
							OFFSET -0.253742 -0.013329 -0.021401
							CHANNELS 3 Zrotation Yrotation Xrotation
							JOINT RightHand
							{
								OFFSET -0.255298 0.007772 -0.005559
								CHANNELS 3 Zrotation Yrotation Xrotation
								End Site
								{
									OFFSET 0.000000 0.000000 0.000000
								}
							}
						}
					}
				}
			}
		}
	}
}
MOTION
Frames: 15
Frame Time: 0.050000
0.000000 0.964012 0.000000 -1.604784 4.539865 1.543238 3.083761 0.048419 2.128651 -2.389271 0.283269 -3.759661 3.333627 10.413316 11.740603 0.000000 0.000000 0.000000 0.214334 0.089381 -0.874942 0.767976 -0.088762 -0.006196 0.972133 -3.996718 17.056891 0.000000 0.000000 0.000000 -1.098713 -0.187606 6.046334 4.421868 -0.291416 -25.576726 -1.070034 -1.361387 28.282325 1.850093 0.738627 -26.299644 0.000000 0.000000 0.000000 -28.056810 -1.152747 -1.638829 -48.896363 -7.223382 -5.211086 -11.722699 -24.187996 3.673987 0.000000 0.000000 0.000000 20.782671 4.225986 1.826673 54.646235 8.940275 -4.071586 5.156645 26.429077 2.449156 0.000000 0.000000 0.000000 
0.001850 0.963498 -0.000059 -1.806173 3.791810 2.201510 3.300275 0.038743 2.102487 -2.389946 0.296256 -4.625675 3.126926 9.981831 11.606792 0.000000 0.000000 0.000000 -0.115057 0.187044 -1.802028 1.041290 -0.108856 0.326892 1.903546 -2.436864 16.869176 0.000000 0.000000 0.000000 -0.907898 -0.159360 5.012428 4.234116 -0.257535 -25.529286 -0.944958 -0.912596 28.644334 2.428342 0.355002 -25.798141 0.000000 0.000000 0.000000 -28.173502 -1.043425 -1.686493 -49.048420 -7.509001 -5.158826 -11.820781 -24.325650 3.730808 0.000000 0.000000 0.000000 20.190267 4.308783 1.881025 56.718583 8.538035 -4.354871 3.779472 27.246975 2.272488 0.000000 0.000000 0.000000 
0.003416 0.962907 -0.000383 -1.523661 3.592932 2.350772 3.129249 0.017592 1.590178 -2.841198 0.318179 -3.738347 3.203200 9.921057 10.929304 0.000000 0.000000 0.000000 -0.253460 0.217473 -2.103667 0.672840 -0.057053 0.592805 1.678619 -2.730837 16.434212 0.000000 0.000000 0.000000 -0.841316 -0.150265 4.689829 3.895989 -0.185187 -25.484319 -1.139725 -1.010741 28.768444 1.872885 0.643976 -25.839904 0.000000 0.000000 0.000000 -27.857676 -1.240685 -1.432229 -48.528264 -7.756772 -5.052642 -12.645298 -24.461172 3.934404 0.000000 0.000000 0.000000 20.726078 4.741653 2.054030 56.074443 8.349829 -4.409887 3.933479 27.115315 2.261514 0.000000 0.000000 0.000000 
0.004705 0.963033 -0.000604 -1.658383 3.356562 2.461446 2.972649 0.010731 1.361237 -2.550386 0.297257 -3.465044 3.410351 10.191456 10.747413 0.000000 0.000000 0.000000 -0.333516 0.232633 -2.253569 0.979003 -0.090852 0.658993 1.681125 -2.737413 16.336769 0.000000 0.000000 0.000000 -0.917998 -0.135033 4.383101 4.199513 -0.235013 -25.952768 -1.076767 -1.023976 29.329120 2.133085 0.422402 -25.414793 0.000000 0.000000 0.000000 -28.229785 -0.801249 -1.676550 -48.289507 -7.849782 -5.056066 -13.312911 -24.918339 4.180001 0.000000 0.000000 0.000000 20.226626 5.004044 2.174774 56.069157 8.042115 -4.595765 4.495920 27.476913 2.421752 0.000000 0.000000 0.000000 
0.005709 0.963414 -0.000744 -1.666328 3.314807 2.291418 2.934958 0.018755 1.447035 -2.608046 0.300633 -3.354135 3.459177 10.303347 10.902617 0.000000 0.000000 0.000000 -0.460677 0.204736 -1.966611 1.056994 -0.101975 0.592050 1.807611 -2.483005 16.222367 0.000000 0.000000 0.000000 -0.988040 -0.141581 4.664992 4.595823 -0.355765 -25.433945 -1.183897 -0.643303 28.662450 2.098491 0.451699 -24.613941 0.000000 0.000000 0.000000 -28.025642 -0.988371 -1.704389 -48.153987 -8.052366 -4.855808 -14.211393 -25.250943 4.414914 0.000000 0.000000 0.000000 20.491754 4.899316 2.188387 55.619961 7.916294 -4.573667 5.352308 27.696451 2.643351 0.000000 0.000000 0.000000 
0.006532 0.963630 -0.000789 -1.716796 3.175697 2.240804 2.887586 0.018698 1.397150 -2.599364 0.299143 -3.176863 3.617894 10.558125 10.954134 0.000000 0.000000 0.000000 -0.543815 0.201685 -1.931764 1.030754 -0.099296 0.565675 2.138937 -1.990761 16.436527 0.000000 0.000000 0.000000 -1.161591 -0.126456 4.494901 4.702822 -0.379733 -25.490724 -1.049922 -0.794537 29.017816 2.150616 0.375892 -24.656077 0.000000 0.000000 0.000000 -27.866324 -0.898332 -1.632430 -48.151955 -8.360790 -4.810420 -14.512546 -25.829387 4.615505 0.000000 0.000000 0.000000 20.299743 5.272517 2.336076 55.543313 7.980479 -4.563476 5.219058 27.628256 2.587243 0.000000 0.000000 0.000000 
0.007096 0.963639 -0.000798 -1.742673 2.913962 2.201305 2.914397 0.023811 1.462999 -2.621624 0.304031 -3.359408 3.671465 10.721524 11.409933 0.000000 0.000000 0.000000 -0.567655 0.195608 -1.868388 1.013839 -0.096228 0.580915 2.275751 -1.727536 16.242817 0.000000 0.000000 0.000000 -1.168241 -0.129516 4.599036 4.804865 -0.416688 -25.340374 -1.086655 -0.669152 28.797321 2.168358 0.349691 -24.503303 0.000000 0.000000 0.000000 -27.910501 -0.902279 -1.621508 -48.018641 -8.301819 -4.808380 -14.963366 -26.046958 4.764179 0.000000 0.000000 0.000000 20.288655 5.384172 2.375191 55.489406 7.777609 -4.627298 5.604369 27.855565 2.695229 0.000000 0.000000 0.000000 
0.007557 0.963468 -0.000791 -1.767787 2.651681 2.277574 2.922460 0.015251 1.307894 -2.591324 0.302185 -3.244779 3.703551 10.775166 11.529641 0.000000 0.000000 0.000000 -0.512782 0.207412 -1.992743 0.973742 -0.085648 0.757288 2.220005 -1.728073 15.828994 0.000000 0.000000 0.000000 -1.186263 -0.125223 4.513596 4.798985 -0.416712 -25.355941 -1.099144 -0.624768 28.934749 2.157638 0.330788 -24.462303 0.000000 0.000000 0.000000 -27.800181 -0.837869 -1.594367 -47.864764 -8.202892 -4.864757 -15.282795 -26.386471 4.917103 0.000000 0.000000 0.000000 20.189486 5.288653 2.289680 55.578747 7.853747 -4.608730 5.609705 27.784006 2.687361 0.000000 0.000000 0.000000 
0.007903 0.963440 -0.000826 -1.747600 2.408003 2.310884 2.923418 0.014401 1.270200 -2.624026 0.305770 -3.218819 3.696340 10.764767 11.638044 0.000000 0.000000 0.000000 -0.564672 0.227173 -2.195077 1.027399 -0.086755 0.912619 2.202330 -1.851728 15.962255 0.000000 0.000000 0.000000 -1.195779 -0.123421 4.485607 4.782364 -0.423373 -25.238801 -1.078135 -0.554149 28.779708 2.049719 0.381424 -24.415378 0.000000 0.000000 0.000000 -27.866378 -0.854500 -1.560356 -47.658332 -8.039286 -4.904541 -15.289669 -26.287151 4.897223 0.000000 0.000000 0.000000 20.242131 5.226598 2.220849 55.497630 7.587922 -4.705604 5.476904 27.895417 2.662109 0.000000 0.000000 0.000000 
0.008197 0.963447 -0.000940 -1.768466 2.298517 2.354767 2.898174 0.007396 1.136412 -2.574901 0.301850 -3.122953 3.755564 10.875958 11.760951 0.000000 0.000000 0.000000 -0.564760 0.243231 -2.361500 1.073738 -0.089534 0.996234 2.163672 -2.005143 16.142924 0.000000 0.000000 0.000000 -1.149452 -0.125258 4.471577 4.765527 -0.429640 -25.099664 -1.158558 -0.513336 28.698044 1.877519 0.494401 -24.540343 0.000000 0.000000 0.000000 -27.908878 -0.871707 -1.547157 -47.526107 -8.009580 -4.895071 -15.397792 -26.318862 4.927358 0.000000 0.000000 0.000000 20.328079 5.114673 2.145720 55.528430 7.486683 -4.741012 5.385659 28.018489 2.655866 0.000000 0.000000 0.000000 
0.008428 0.963561 -0.001127 -1.748265 2.444813 2.408353 2.943759 -0.004817 0.986835 -2.585233 0.300511 -3.016507 3.528203 10.532354 11.775177 0.000000 0.000000 0.000000 -0.613836 0.265695 -2.593673 1.191821 -0.098831 1.185902 1.968855 -2.415591 16.400649 0.000000 0.000000 0.000000 -1.064147 -0.128018 4.419628 4.609769 -0.388764 -25.125241 -1.217495 -0.719093 28.787488 1.776435 0.549531 -24.745829 0.000000 0.000000 0.000000 -27.856248 -0.890103 -1.484510 -47.506451 -8.016133 -4.910617 -15.322192 -26.224575 4.895372 0.000000 0.000000 0.000000 20.147448 4.935817 2.016842 55.751682 7.392221 -4.796022 5.270399 27.944713 2.619544 0.000000 0.000000 0.000000 
0.008620 0.963811 -0.001272 -1.711005 2.665787 2.315264 2.954462 -0.003939 1.020202 -2.629071 0.302299 -2.980850 3.370363 10.319451 11.844430 0.000000 0.000000 0.000000 -0.553925 0.268627 -2.626209 1.192490 -0.099078 1.209362 1.597800 -3.205891 16.923976 0.000000 0.000000 0.000000 -1.037185 -0.136367 4.610750 4.589393 -0.375706 -25.221001 -1.334498 -0.802533 28.865650 1.643604 0.630259 -24.650756 0.000000 0.000000 0.000000 -27.975421 -1.011442 -1.436236 -47.304833 -8.117134 -4.860423 -15.330435 -26.068294 4.859685 0.000000 0.000000 0.000000 20.231013 4.815630 1.969736 55.567009 7.300033 -4.844322 5.179415 27.921151 2.599317 0.000000 0.000000 0.000000 
0.008771 0.964040 -0.001308 -1.673359 2.830848 2.305403 2.880014 -0.004519 0.987669 -2.524202 0.293271 -2.964538 3.237525 10.144787 11.926278 0.000000 0.000000 0.000000 -0.431665 0.276098 -2.702993 1.155945 -0.091765 1.332169 1.120388 -4.039818 17.015209 0.000000 0.000000 0.000000 -1.014524 -0.142436 4.745493 4.524739 -0.352223 -25.341609 -1.387032 -0.925095 28.973275 1.571003 0.671620 -24.694577 0.000000 0.000000 0.000000 -27.967915 -1.064585 -1.392179 -47.278619 -8.248993 -4.820716 -15.229429 -25.761618 4.772861 0.000000 0.000000 0.000000 20.221556 4.675605 1.892813 55.448864 7.244747 -4.877183 5.119886 27.763119 2.567517 0.000000 0.000000 0.000000 
0.008885 0.964217 -0.001222 -1.619479 2.889919 2.268123 2.765016 0.004199 1.066845 -2.407871 0.285591 -3.080017 3.175851 10.091650 12.090957 0.000000 0.000000 0.000000 -0.359836 0.268120 -2.621409 1.107993 -0.088093 1.258561 0.798623 -4.602385 17.054232 0.000000 0.000000 0.000000 -1.028288 -0.144732 4.832754 4.499497 -0.334295 -25.533332 -1.400364 -0.997559 29.275862 1.375466 0.776727 -24.665009 0.000000 0.000000 0.000000 -28.052556 -0.959895 -1.438003 -47.147270 -8.449976 -4.776469 -15.260823 -25.546943 4.742649 0.000000 0.000000 0.000000 20.217681 4.655070 1.883377 55.189260 7.325833 -4.866424 5.140092 27.666062 2.560082 0.000000 0.000000 0.000000 
0.008990 0.964276 -0.001044 -1.588819 2.982113 2.225885 2.668886 0.014956 1.188580 -2.336788 0.281355 -3.200588 3.181320 10.108557 12.087032 0.000000 0.000000 0.000000 -0.282837 0.252682 -2.464546 1.002616 -0.077733 1.177843 0.627575 -4.833588 16.879992 0.000000 0.000000 0.000000 -1.021780 -0.146555 4.870421 4.480918 -0.326740 -25.569353 -1.440214 -0.991986 29.426341 1.428582 0.750339 -24.627359 0.000000 0.000000 0.000000 -28.165216 -1.072590 -1.394196 -47.102310 -8.644811 -4.708832 -15.067828 -25.132581 4.610916 0.000000 0.000000 0.000000 20.281498 4.541760 1.844257 55.064801 7.413369 -4.844873 5.177352 27.450379 2.548425 0.000000 0.000000 0.000000 
